<!-- No-background version: Concept 5 - Layered Dream -->
<svg xmlns="http://www.w3.org/2000/svg" viewBox="0 0 128 128">
  <defs>
    <linearGradient id="ld1" x1="0%" y1="0%" x2="0%" y2="100%">
      <stop offset="0%" style="stop-color:#667eea;stop-opacity:1" />
      <stop offset="100%" style="stop-color:#764ba2;stop-opacity:1" />
    </linearGradient>
    <linearGradient id="ld2" x1="0%" y1="0%" x2="0%" y2="100%">
      <stop offset="0%" style="stop-color:#a8c0ff;stop-opacity:1" />
      <stop offset="100%" style="stop-color:#667eea;stop-opacity:0.95" />
    </linearGradient>
    <linearGradient id="ld3" x1="0%" y1="0%" x2="0%" y2="100%">
      <stop offset="0%" style="stop-color:#e0e7ff;stop-opacity:0.95" />
      <stop offset="100%" style="stop-color:#a8c0ff;stop-opacity:0.9" />
    </linearGradient>
  </defs>
  
  <!-- Back layer - full moon, larger -->
  <circle cx="64" cy="72" r="48" fill="url(#ld3)"/>
  
  <!-- Middle layer - crescent overlap -->
  <path d="M 64 20 Q 102 20 122 48 Q 134 68 122 88 Q 102 116 64 116 L 64 20 Z" 
        fill="url(#ld2)" transform="translate(-10, -2)"/>
  
  <!-- Front layer - thin crescent -->
  <path d="M 64 18 Q 96 18 114 42 Q 126 64 114 86 Q 96 110 64 110 Q 78 104 88 86 Q 94 64 88 42 Q 78 24 64 18 Z" 
        fill="url(#ld1)" transform="translate(12, 0)"/>
  
  <!-- Cloud fragments -->
  <ellipse cx="24" cy="60" rx="20" ry="13" fill="#e0e7ff" opacity="0.7"/>
  <ellipse cx="108" cy="78" rx="18" ry="12" fill="#a8c0ff" opacity="0.8"/>
  
  <!-- Connection lines -->
  <line x1="44" y1="62" x2="52" y2="64" stroke="#667eea" stroke-width="1.5" opacity="0.4" stroke-dasharray="3 3"/>
  <line x1="90" y1="72" x2="104" y2="76" stroke="#667eea" stroke-width="1.5" opacity="0.4" stroke-dasharray="3 3"/>
</svg>